<mxfile host="app.diagrams.net" modified="2021-03-25T10:34:22.704Z" agent="5.0 (Macintosh; Intel Mac OS X 10_15_6) AppleWebKit/537.36 (KHTML, like Gecko) Chrome/89.0.4389.82 Safari/537.36" etag="jL9umgjDKFH2ThL3mxB4" version="14.5.0" type="github">
  <diagram id="8cy3sFyyJzYu4N1cRFVG" name="Page-1">
    <mxGraphModel dx="946" dy="614" grid="1" gridSize="10" guides="1" tooltips="1" connect="1" arrows="1" fold="1" page="1" pageScale="1" pageWidth="827" pageHeight="1169" math="0" shadow="0">
      <root>
        <mxCell id="0" />
        <mxCell id="1" parent="0" />
        <mxCell id="ucStAmGg6WZuVa6KLb5a-17" style="edgeStyle=orthogonalEdgeStyle;rounded=0;orthogonalLoop=1;jettySize=auto;html=1;" parent="1" source="ucStAmGg6WZuVa6KLb5a-14" target="ucStAmGg6WZuVa6KLb5a-15" edge="1">
          <mxGeometry relative="1" as="geometry" />
        </mxCell>
        <mxCell id="ucStAmGg6WZuVa6KLb5a-14" value="Get&lt;br&gt;User interest post" style="rounded=0;whiteSpace=wrap;html=1;" parent="1" vertex="1">
          <mxGeometry x="270" y="60" width="120" height="60" as="geometry" />
        </mxCell>
        <mxCell id="ucStAmGg6WZuVa6KLb5a-20" style="edgeStyle=orthogonalEdgeStyle;rounded=0;orthogonalLoop=1;jettySize=auto;html=1;" parent="1" source="ucStAmGg6WZuVa6KLb5a-15" target="ucStAmGg6WZuVa6KLb5a-19" edge="1">
          <mxGeometry relative="1" as="geometry" />
        </mxCell>
        <mxCell id="ucStAmGg6WZuVa6KLb5a-15" value="Cawl from&lt;br&gt;Post endpoint&lt;br&gt;(candidate)" style="rounded=0;whiteSpace=wrap;html=1;" parent="1" vertex="1">
          <mxGeometry x="270" y="160" width="120" height="60" as="geometry" />
        </mxCell>
        <mxCell id="ucStAmGg6WZuVa6KLb5a-27" style="edgeStyle=orthogonalEdgeStyle;rounded=0;orthogonalLoop=1;jettySize=auto;html=1;" parent="1" source="ucStAmGg6WZuVa6KLb5a-16" target="ucStAmGg6WZuVa6KLb5a-26" edge="1">
          <mxGeometry relative="1" as="geometry" />
        </mxCell>
        <mxCell id="ucStAmGg6WZuVa6KLb5a-16" value="Keyword Extraction for User interet and candidate" style="rounded=0;whiteSpace=wrap;html=1;" parent="1" vertex="1">
          <mxGeometry x="270" y="420" width="120" height="60" as="geometry" />
        </mxCell>
        <mxCell id="ucStAmGg6WZuVa6KLb5a-24" style="edgeStyle=orthogonalEdgeStyle;rounded=0;orthogonalLoop=1;jettySize=auto;html=1;entryX=0.5;entryY=0;entryDx=0;entryDy=0;" parent="1" source="ucStAmGg6WZuVa6KLb5a-19" target="ucStAmGg6WZuVa6KLb5a-16" edge="1">
          <mxGeometry relative="1" as="geometry" />
        </mxCell>
        <mxCell id="ucStAmGg6WZuVa6KLb5a-25" value="Yes" style="edgeLabel;html=1;align=center;verticalAlign=middle;resizable=0;points=[];" parent="ucStAmGg6WZuVa6KLb5a-24" vertex="1" connectable="0">
          <mxGeometry x="-0.32" y="1" relative="1" as="geometry">
            <mxPoint as="offset" />
          </mxGeometry>
        </mxCell>
        <mxCell id="ucStAmGg6WZuVa6KLb5a-38" style="edgeStyle=orthogonalEdgeStyle;rounded=0;orthogonalLoop=1;jettySize=auto;html=1;entryX=0.5;entryY=0;entryDx=0;entryDy=0;" parent="1" source="ucStAmGg6WZuVa6KLb5a-19" target="ucStAmGg6WZuVa6KLb5a-35" edge="1">
          <mxGeometry relative="1" as="geometry" />
        </mxCell>
        <mxCell id="ucStAmGg6WZuVa6KLb5a-39" value="No&amp;nbsp;" style="edgeLabel;html=1;align=center;verticalAlign=middle;resizable=0;points=[];" parent="ucStAmGg6WZuVa6KLb5a-38" vertex="1" connectable="0">
          <mxGeometry x="-0.6553" y="1" relative="1" as="geometry">
            <mxPoint as="offset" />
          </mxGeometry>
        </mxCell>
        <mxCell id="ucStAmGg6WZuVa6KLb5a-19" value="Do user has the interest history?" style="rhombus;whiteSpace=wrap;html=1;" parent="1" vertex="1">
          <mxGeometry x="240" y="260" width="180" height="110" as="geometry" />
        </mxCell>
        <mxCell id="ucStAmGg6WZuVa6KLb5a-29" style="edgeStyle=orthogonalEdgeStyle;rounded=0;orthogonalLoop=1;jettySize=auto;html=1;entryX=0.5;entryY=0;entryDx=0;entryDy=0;" parent="1" source="ucStAmGg6WZuVa6KLb5a-26" target="ucStAmGg6WZuVa6KLb5a-28" edge="1">
          <mxGeometry relative="1" as="geometry" />
        </mxCell>
        <mxCell id="ucStAmGg6WZuVa6KLb5a-26" value="Different filtering technique and add result to recommendation" style="rounded=0;whiteSpace=wrap;html=1;" parent="1" vertex="1">
          <mxGeometry x="270" y="540" width="120" height="60" as="geometry" />
        </mxCell>
        <mxCell id="ucStAmGg6WZuVa6KLb5a-33" value="No" style="edgeStyle=orthogonalEdgeStyle;rounded=0;orthogonalLoop=1;jettySize=auto;html=1;entryX=0.5;entryY=0;entryDx=0;entryDy=0;" parent="1" source="ucStAmGg6WZuVa6KLb5a-28" target="ucStAmGg6WZuVa6KLb5a-32" edge="1">
          <mxGeometry relative="1" as="geometry" />
        </mxCell>
        <mxCell id="ucStAmGg6WZuVa6KLb5a-46" style="edgeStyle=orthogonalEdgeStyle;rounded=0;orthogonalLoop=1;jettySize=auto;html=1;" parent="1" source="ucStAmGg6WZuVa6KLb5a-28" target="ucStAmGg6WZuVa6KLb5a-43" edge="1">
          <mxGeometry relative="1" as="geometry">
            <Array as="points">
              <mxPoint x="490" y="680" />
              <mxPoint x="490" y="955" />
            </Array>
          </mxGeometry>
        </mxCell>
        <mxCell id="ucStAmGg6WZuVa6KLb5a-47" value="Yes" style="edgeLabel;html=1;align=center;verticalAlign=middle;resizable=0;points=[];" parent="ucStAmGg6WZuVa6KLb5a-46" vertex="1" connectable="0">
          <mxGeometry x="0.1916" y="4" relative="1" as="geometry">
            <mxPoint as="offset" />
          </mxGeometry>
        </mxCell>
        <mxCell id="ucStAmGg6WZuVa6KLb5a-28" value="Do user get enough post?" style="rhombus;whiteSpace=wrap;html=1;" parent="1" vertex="1">
          <mxGeometry x="225" y="640" width="210" height="80" as="geometry" />
        </mxCell>
        <mxCell id="ucStAmGg6WZuVa6KLb5a-34" value="Yes" style="edgeStyle=orthogonalEdgeStyle;rounded=0;orthogonalLoop=1;jettySize=auto;html=1;" parent="1" source="ucStAmGg6WZuVa6KLb5a-32" target="ucStAmGg6WZuVa6KLb5a-26" edge="1">
          <mxGeometry relative="1" as="geometry">
            <Array as="points">
              <mxPoint x="530" y="810" />
              <mxPoint x="530" y="570" />
            </Array>
          </mxGeometry>
        </mxCell>
        <mxCell id="ucStAmGg6WZuVa6KLb5a-37" style="edgeStyle=orthogonalEdgeStyle;rounded=0;orthogonalLoop=1;jettySize=auto;html=1;entryX=1;entryY=0.5;entryDx=0;entryDy=0;" parent="1" source="ucStAmGg6WZuVa6KLb5a-32" target="ucStAmGg6WZuVa6KLb5a-35" edge="1">
          <mxGeometry relative="1" as="geometry" />
        </mxCell>
        <mxCell id="ucStAmGg6WZuVa6KLb5a-42" value="No" style="edgeLabel;html=1;align=center;verticalAlign=middle;resizable=0;points=[];" parent="ucStAmGg6WZuVa6KLb5a-37" vertex="1" connectable="0">
          <mxGeometry x="-0.3" y="-2" relative="1" as="geometry">
            <mxPoint as="offset" />
          </mxGeometry>
        </mxCell>
        <mxCell id="ucStAmGg6WZuVa6KLb5a-44" style="edgeStyle=orthogonalEdgeStyle;rounded=0;orthogonalLoop=1;jettySize=auto;html=1;" parent="1" source="ucStAmGg6WZuVa6KLb5a-32" target="ucStAmGg6WZuVa6KLb5a-43" edge="1">
          <mxGeometry relative="1" as="geometry" />
        </mxCell>
        <mxCell id="ucStAmGg6WZuVa6KLb5a-32" value="Do there unused technique?" style="rhombus;whiteSpace=wrap;html=1;" parent="1" vertex="1">
          <mxGeometry x="220" y="770" width="220" height="80" as="geometry" />
        </mxCell>
        <mxCell id="ucStAmGg6WZuVa6KLb5a-45" style="edgeStyle=orthogonalEdgeStyle;rounded=0;orthogonalLoop=1;jettySize=auto;html=1;" parent="1" source="ucStAmGg6WZuVa6KLb5a-35" target="ucStAmGg6WZuVa6KLb5a-43" edge="1">
          <mxGeometry relative="1" as="geometry">
            <Array as="points">
              <mxPoint x="80" y="955" />
            </Array>
          </mxGeometry>
        </mxCell>
        <mxCell id="ucStAmGg6WZuVa6KLb5a-35" value="Get latest post to fill list to required length&amp;nbsp;" style="whiteSpace=wrap;html=1;aspect=fixed;" parent="1" vertex="1">
          <mxGeometry x="40" y="770" width="80" height="80" as="geometry" />
        </mxCell>
        <mxCell id="ucStAmGg6WZuVa6KLb5a-40" value="Cold start" style="rounded=0;whiteSpace=wrap;html=1;" parent="1" vertex="1">
          <mxGeometry x="20" y="360" width="120" height="60" as="geometry" />
        </mxCell>
        <mxCell id="ucStAmGg6WZuVa6KLb5a-43" value="Return&lt;br&gt;recommendation" style="ellipse;whiteSpace=wrap;html=1;aspect=fixed;" parent="1" vertex="1">
          <mxGeometry x="265" y="890" width="130" height="130" as="geometry" />
        </mxCell>
      </root>
    </mxGraphModel>
  </diagram>
</mxfile>
